HIERARCHY
ROOT Hips
{
	OFFSET -6.735209 106.389282 -5.845621
	CHANNELS 6 Xposition Yposition Zposition Xrotation Yrotation Zrotation
	JOINT Chest
	{
		OFFSET 1.077482 13.523247 1.454350
		CHANNELS 3 Xrotation Yrotation Zrotation
		JOINT Chest2
		{
			OFFSET 2.959523 21.216972 0.384526
			CHANNELS 3 Xrotation Yrotation Zrotation
			JOINT Chest3
			{
				OFFSET 2.375142 14.582306 -2.129560
				CHANNELS 3 Xrotation Yrotation Zrotation
				JOINT Neck
				{
					OFFSET 4.441743 16.687073 -0.654522
					CHANNELS 3 Xrotation Yrotation Zrotation
					JOINT Head
					{
						OFFSET 1.869761 10.309509 0.214115
						CHANNELS 3 Xrotation Yrotation Zrotation
						End Site
						{
							OFFSET 1.918426 10.301529 0.160180
						}
					}
				}
				JOINT LeftCollar
				{
					OFFSET 5.136165 12.530777 4.289947
					CHANNELS 3 Xrotation Yrotation Zrotation
					JOINT LeftUpArm
					{
						OFFSET 13.321817 4.047379 10.707349
						CHANNELS 3 Xrotation Yrotation Zrotation
						JOINT LeftLowArm
						{
							OFFSET -25.850937 10.892883 18.783028
							CHANNELS 3 Xrotation Yrotation Zrotation
							JOINT LeftHand
							{
								OFFSET -17.107428 24.653976 0.681280
								CHANNELS 3 Xrotation Yrotation Zrotation
								End Site
								{
									OFFSET -3.738937 5.388260 0.148899
								}
							}
						}
					}
				}
				JOINT RightCollar
				{
					OFFSET -1.521953 14.110992 -0.610208
					CHANNELS 3 Xrotation Yrotation Zrotation
					JOINT RightUpArm
					{
						OFFSET -9.336292 5.108902 -13.972435
						CHANNELS 3 Xrotation Yrotation Zrotation
						JOINT RightLowArm
						{
							OFFSET -19.234688 22.571640 16.133244
							CHANNELS 3 Xrotation Yrotation Zrotation
							JOINT RightHand
							{
								OFFSET 10.504490 21.585754 18.018488
								CHANNELS 3 Xrotation Yrotation Zrotation
								End Site
								{
									OFFSET 2.295856 4.717789 3.938110
								}
							}
						}
					}
				}
			}
		}
	}
	JOINT LeftUpLeg
	{
		OFFSET 8.920938 -1.185066 4.408130
		CHANNELS 3 Xrotation Yrotation Zrotation
		JOINT LeftLowLeg
		{
			OFFSET 12.937965 -42.288067 16.979908
			CHANNELS 3 Xrotation Yrotation Zrotation
			JOINT LeftFoot
			{
				OFFSET -6.223141 -40.992744 -16.776026
				CHANNELS 3 Xrotation Yrotation Zrotation
				JOINT LeftToe
				{
					OFFSET -6.838751 -21.385262 7.447252
					CHANNELS 3 Xrotation Yrotation Zrotation
					End Site
					{
						OFFSET -1.051539 -13.016201 19.723886
					}
				}
			}
		}
	}
	JOINT RightUpLeg
	{
		OFFSET -8.920958 1.184868 -4.408154
		CHANNELS 3 Xrotation Yrotation Zrotation
		JOINT RightLowLeg
		{
			OFFSET 2.026291 -47.036739 -5.239341
			CHANNELS 3 Xrotation Yrotation Zrotation
			JOINT RightFoot
			{
				OFFSET 9.675632 -40.675812 -15.888349
				CHANNELS 3 Xrotation Yrotation Zrotation
				JOINT RightToe
				{
					OFFSET -2.590332 -21.673084 9.117243
					CHANNELS 3 Xrotation Yrotation Zrotation
					End Site
					{
						OFFSET -7.373067 -10.772858 19.726620
					}
				}
			}
		}
	}
}
MOTION
Frames: 7
Frame Time: 0.033333
-2.798847 104.804863 -1.111719 1.173610 22.928213 5.943518 2.759059 -1.242284 5.376579 2.922509 2.512390 -2.228344 3.532017 12.495764 5.182130 -3.007110 1.659719 -0.485797 0.000001 0.000002 -0.000001 39.772663 10.811756 -43.329972 94.188910 40.806371 -47.899164 13.733753 20.461645 48.259934 -0.000002 0.000004 0.000003 -18.393045 -9.362625 31.566300 14.110385 -40.873286 88.119925 37.151786 -21.794094 48.995628 -0.000003 -0.000003 -0.000002 24.700028 -4.785910 -15.396691 -33.817271 -5.260137 24.386017 -27.562815 -18.694296 -7.550234 0.000002 0.000002 -0.000003 0.376519 2.746459 -7.695379 -6.853091 -2.017721 -4.529524 -9.643182 -7.075337 -1.954135 -0.000002 -0.000002 0.000001 
-2.798107 104.807915 -1.115038 1.086669 23.119982 5.895814 2.753523 -1.240583 5.407594 3.637663 2.406821 -1.963977 2.857682 12.187312 4.981178 -2.802462 1.714599 -0.651690 0.000000 0.000000 -0.000000 40.084748 11.532834 -44.151760 94.578818 40.824925 -48.418159 13.600362 20.450438 48.856811 -0.000002 0.000004 0.000001 -18.414453 -9.176057 31.750247 14.019304 -41.138031 88.026419 37.367002 -21.571172 48.703989 -0.000000 -0.000003 0.000001 24.724038 -4.730897 -15.300283 -33.853088 -5.185170 24.320658 -27.560430 -18.734661 -7.576501 0.000003 0.000000 0.000001 0.458138 2.721714 -7.636423 -6.793234 -2.074153 -4.422729 -9.795365 -7.205131 -1.998063 -0.000004 -0.000004 0.000000 
-2.796369 104.807228 -1.119155 1.459812 23.259128 5.842086 2.486534 -1.215547 5.332579 3.882499 2.363602 -1.826325 2.768612 12.075035 4.922179 -3.024795 1.715413 -0.723428 0.000001 0.000002 -0.000001 40.084956 11.311875 -43.944720 94.395202 40.862365 -48.150610 13.506517 20.247083 48.732276 -0.000002 0.000003 0.000003 -18.469060 -9.318086 31.770485 13.799576 -40.614214 87.633690 37.058708 -21.842059 49.023765 -0.000000 0.000002 0.000003 24.200521 -4.810826 -15.403890 -33.545508 -5.245532 24.410551 -27.824896 -18.687025 -7.644882 -0.000000 0.000002 -0.000001 0.226375 2.798012 -7.677406 -6.871824 -1.988776 -4.404442 -10.054416 -7.259642 -2.043551 -0.000004 -0.000004 -0.000000 
-2.788769 104.807877 -1.121569 1.665183 23.085669 5.721961 1.920910 -1.190059 5.192398 4.515664 2.300199 -1.541285 2.433648 12.195339 4.733241 -2.920193 1.756654 -0.531269 0.000002 0.000004 -0.000000 39.980560 11.204065 -43.340760 94.308493 40.918789 -47.644220 13.242551 20.052025 48.519547 -0.000000 0.000003 0.000003 -18.165117 -9.232383 31.859332 13.996791 -40.145277 87.660799 36.767858 -21.951053 48.682078 -0.000001 -0.000001 -0.000000 23.916893 -4.836795 -15.482973 -33.497208 -5.261731 24.458479 -27.744094 -18.566925 -7.526359 -0.000002 0.000002 -0.000001 0.271978 2.769072 -7.603608 -7.317459 -2.116241 -4.617282 -9.778334 -7.169843 -1.990948 -0.000002 -0.000003 -0.000000 
-2.777443 104.809738 -1.122296 1.601231 23.082389 5.654922 2.351974 -1.245357 5.397910 3.731379 2.441768 -1.874716 2.968983 12.662784 4.902891 -3.185286 1.591620 -0.126637 -0.000000 0.000002 -0.000001 39.405643 10.314092 -41.978035 94.530624 40.885000 -47.569805 13.055897 19.361771 48.470622 -0.000004 0.000004 -0.000000 -18.194162 -9.557134 31.613920 14.216263 -39.987032 88.085132 36.479016 -21.823184 48.286562 0.000001 -0.000003 -0.000002 24.013924 -4.851422 -15.418334 -33.370508 -5.370850 24.521112 -27.512115 -18.597963 -7.498793 0.000004 0.000000 0.000001 0.430217 2.757772 -7.517306 -7.251310 -1.990328 -4.526003 -9.777418 -7.222467 -1.864628 -0.000000 -0.000003 -0.000000 
-2.764772 104.817352 -1.123016 1.315245 23.238300 5.609518 2.647708 -1.293655 5.525803 3.643625 2.391413 -1.720745 2.939088 12.718129 4.728276 -3.329609 1.631998 -0.012896 0.000000 -0.000001 0.000000 39.316717 10.021937 -41.378348 94.408056 41.074357 -47.232800 12.584624 19.444912 48.331467 -0.000001 0.000004 0.000003 -18.153094 -9.802650 31.717848 14.467988 -39.880556 88.110820 36.486119 -22.043223 47.905287 -0.000001 -0.000003 -0.000002 24.239190 -4.757995 -15.251828 -33.162481 -5.394941 24.484796 -27.557240 -18.729267 -7.571588 0.000002 0.000001 -0.000001 0.350500 2.732799 -7.442902 -6.733286 -1.912442 -4.292657 -9.975095 -7.327945 -1.893065 -0.000002 -0.000001 0.000000 
-2.744374 104.824852 -1.126637 1.741521 23.354587 5.580884 1.976757 -1.195605 5.306609 4.202672 2.290324 -1.483856 2.552697 11.915495 4.646171 -2.891907 1.808330 -0.239361 0.000000 -0.000001 0.000001 39.893250 11.068036 -42.948257 95.045094 41.097218 -48.311427 12.858716 19.411194 48.874638 -0.000001 0.000003 0.000001 -17.886034 -9.037915 31.931175 14.402036 -40.158620 88.272135 36.195119 -22.165132 47.940999 0.000002 -0.000004 -0.000000 23.692972 -4.859139 -15.478582 -32.661859 -5.365113 24.717495 -28.231183 -18.425678 -7.639354 0.000002 0.000001 0.000001 0.032116 2.834801 -7.658683 -6.744157 -1.861749 -4.224009 -9.821474 -7.374877 -1.741055 -0.000004 -0.000001 0.000000 
